<?xml version="1.0" encoding="UTF-8" standalone="no"?>
<!-- Created with Inkscape (http://www.inkscape.org/) -->

<svg
   xmlns:dc="http://purl.org/dc/elements/1.1/"
   xmlns:cc="http://creativecommons.org/ns#"
   xmlns:rdf="http://www.w3.org/1999/02/22-rdf-syntax-ns#"
   xmlns:svg="http://www.w3.org/2000/svg"
   xmlns="http://www.w3.org/2000/svg"
   xmlns:sodipodi="http://sodipodi.sourceforge.net/DTD/sodipodi-0.dtd"
   xmlns:inkscape="http://www.inkscape.org/namespaces/inkscape"
   width="512"
   height="512"
   viewBox="0 0 135.46666 135.46667"
   version="1.1"
   id="svg220"
   inkscape:version="0.92.2 5c3e80d, 2017-08-06"
   sodipodi:docname="face-transparent.svg">
  <title
     id="title5301">Profile picture Benjamin Wilhelm</title>
  <defs
     id="defs214">
    <clipPath
       id="clipPath198-7"
       clipPathUnits="userSpaceOnUse">
      <path
         id="path196-5"
         d="M 0,2048 H 2048 V 0 H 0 Z"
         inkscape:connector-curvature="0" />
    </clipPath>
    <clipPath
       id="clipPath82"
       clipPathUnits="userSpaceOnUse">
      <path
         id="path80"
         d="M 0,2048 H 2048 V 0 H 0 Z"
         inkscape:connector-curvature="0" />
    </clipPath>
    <clipPath
       id="clipPath122"
       clipPathUnits="userSpaceOnUse">
      <path
         id="path120"
         d="m 1468,254.834 h 206.22 V 209.102 H 1468 Z"
         inkscape:connector-curvature="0" />
    </clipPath>
    <clipPath
       id="clipPath138"
       clipPathUnits="userSpaceOnUse">
      <path
         id="path136"
         d="m 1468,244.136 h 111.56 V 0 H 1468 Z"
         inkscape:connector-curvature="0" />
    </clipPath>
    <clipPath
       id="clipPath162"
       clipPathUnits="userSpaceOnUse">
      <path
         id="path160"
         d="M 373.489,254.834 H 580 V 209.102 H 373.489 Z"
         inkscape:connector-curvature="0" />
    </clipPath>
    <clipPath
       id="clipPath178"
       clipPathUnits="userSpaceOnUse">
      <path
         id="path176"
         d="M 469.618,243.182 H 580 V 0 H 469.618 Z"
         inkscape:connector-curvature="0" />
    </clipPath>
    <clipPath
       id="clipPath62"
       clipPathUnits="userSpaceOnUse">
      <path
         id="path60"
         d="M 0,0 H 2048 V 2048 H 0 Z"
         inkscape:connector-curvature="0" />
    </clipPath>
    <radialGradient
       id="radialGradient72"
       spreadMethod="pad"
       gradientTransform="matrix(1023.9999,0,0,-2047.9999,1024,1024)"
       gradientUnits="userSpaceOnUse"
       r="1"
       cy="0"
       cx="0"
       fy="0"
       fx="0">
      <stop
         id="stop68"
         offset="0"
         style="stop-opacity:1;stop-color:#fff0db" />
      <stop
         id="stop70"
         offset="1"
         style="stop-opacity:1;stop-color:#e8ae5d" />
    </radialGradient>
  </defs>
  <sodipodi:namedview
     id="base"
     pagecolor="#ffffff"
     bordercolor="#666666"
     borderopacity="1.0"
     inkscape:pageopacity="0.0"
     inkscape:pageshadow="2"
     inkscape:zoom="1.979899"
     inkscape:cx="2.7997808"
     inkscape:cy="298.92822"
     inkscape:document-units="mm"
     inkscape:current-layer="layer1"
     showgrid="false"
     units="px"
     inkscape:window-width="3840"
     inkscape:window-height="2056"
     inkscape:window-x="0"
     inkscape:window-y="50"
     inkscape:window-maximized="1" />
  <metadata
     id="metadata217">
    <rdf:RDF>
      <cc:Work
         rdf:about="">
        <dc:format>image/svg+xml</dc:format>
        <dc:type
           rdf:resource="http://purl.org/dc/dcmitype/StillImage" />
        <dc:title>Profile picture Benjamin Wilhelm</dc:title>
        <dc:creator>
          <cc:Agent>
            <dc:title>Benjamin Wilhelm</dc:title>
          </cc:Agent>
        </dc:creator>
      </cc:Work>
    </rdf:RDF>
  </metadata>
  <g
     inkscape:label="Layer 1"
     inkscape:groupmode="layer"
     id="layer1"
     transform="translate(0,-161.53336)">
    <g
       transform="matrix(0.06614583,0,0,-0.06614583,0.01055823,296.99999)"
       id="g76">
      <g
         clip-path="url(#clipPath82)"
         id="g78">
        <g
           transform="translate(810,597.1084)"
           id="g84">
          <path
             id="path86"
             style="fill:#e8c9b3;fill-opacity:1;fill-rule:evenodd;stroke:none"
             d="m 0,0 v -140.357 c 0,0 -29.729,-3.002 -27.5,-14.085 7.977,-39.667 74.234,-134.577 241.5,-134.577 164.85,0 242.305,79.182 251,123.011 2.593,13.068 -37,37.782 -37,37.782 V -0.125"
             inkscape:connector-curvature="0" />
        </g>
        <g
           transform="translate(865,516.0898)"
           id="g88">
          <path
             id="path90"
             style="fill:#c4aa97;fill-opacity:1;fill-rule:evenodd;stroke:none"
             d="M 0,0 C 0,0 21.11,-113 154.055,-113 287,-113 311.219,0 311.219,0"
             inkscape:connector-curvature="0" />
        </g>
        <g
           transform="translate(804.9917,456.042)"
           id="g92">
          <path
             id="path94"
             style="fill:#f5dbc9;fill-opacity:1;fill-rule:nonzero;stroke:none"
             d="M 0,0 C 17.341,-35.044 59.017,-127.859 219.008,-129.377 379,-130.895 437.543,-15.792 435.543,0.282 c 0,0 9.263,-10.607 8.465,-20.063 -3.5,-41.5 -51.138,-99.664 -136.879,-126.596 C 196.008,-181.281 93.008,-135.781 93.008,-135.781 41.034,-114.991 3.672,-61.536 -5.836,-31.146 -10.048,-17.684 0,0 0,0"
             inkscape:connector-curvature="0" />
        </g>
        <g
           transform="translate(1238,464)"
           id="g96">
          <path
             id="path98"
             style="fill:none;stroke:#000000;stroke-width:14;stroke-linecap:round;stroke-linejoin:miter;stroke-miterlimit:10;stroke-dasharray:none;stroke-opacity:1"
             d="M 0,0 V 132.983"
             inkscape:connector-curvature="0" />
        </g>
        <g
           transform="translate(810,597.1084)"
           id="g100">
          <path
             id="path102"
             style="fill:none;stroke:#000000;stroke-width:14;stroke-linecap:round;stroke-linejoin:miter;stroke-miterlimit:10;stroke-dasharray:none;stroke-opacity:1"
             d="M 0,0 V -135.108"
             inkscape:connector-curvature="0" />
        </g>
        <g
           transform="translate(1468)"
           id="g104">
          <path
             id="path106"
             style="fill:#1389d1;fill-opacity:1;fill-rule:nonzero;stroke:#000000;stroke-width:14;stroke-linecap:butt;stroke-linejoin:round;stroke-miterlimit:10;stroke-dasharray:none;stroke-opacity:1"
             d="m 0,0 v 231.49 l 230.057,26 v 52 C 230.057,480.156 70,480 70,480 c 0,0 -184.516,13.404 -300,-17.188 0,0 13.805,-5.606 11.312,-24.062 -5.887,-43.572 -68.007,-130.583 -231.007,-130.623 -150.972,-0.037 -222.46,92.911 -220.171,139.206 C -669.489,454.956 -658,462 -658,462 c -84,31.404 -300,18 -300,18 0,0 -160.376,0.156 -160.376,-170.51 v -52 L -888,231.49 V 0"
             inkscape:connector-curvature="0" />
        </g>
        <g
           transform="translate(430.6201,254.1113)"
           id="g108">
          <path
             id="path110"
             style="fill:#0f70ab;fill-opacity:1;fill-rule:nonzero;stroke:none"
             d="m 0,0 v 104.976 c 0,0 0,71.851 116.054,71.679 55.009,-0.081 104.661,6.637 134.826,-2.716 53.946,-16.725 135.987,-95.255 188.498,-116.05 93.333,-36.961 251.334,-48 346,12.667 28.507,18.268 76.495,75.357 107.334,89.333 50.344,22.815 222,6.667 222,6.667 0,0 73.228,3.42 73.228,-61.58 V -5.605 c 0,0 -174.56,-4.403 -174.56,-42.556 v -205.95 h -838 c 0,0 -1.423,149.158 -1.256,198.491 C 174.271,-11.906 0,0 0,0"
             inkscape:connector-curvature="0" />
        </g>
        <g
           transform="translate(1468)"
           id="g112">
          <path
             id="path114"
             style="fill:#e8c9b3;fill-opacity:1;fill-rule:nonzero;stroke:#000000;stroke-width:14;stroke-linecap:butt;stroke-linejoin:round;stroke-miterlimit:10;stroke-dasharray:none;stroke-opacity:1"
             d="m 0,0 v 231.527 l 206.225,23.307 V 0"
             inkscape:connector-curvature="0" />
        </g>
        <g
           id="g116">
          <g
             id="g118" />
          <g
             id="g130">
            <g
               style="opacity:0.5"
               id="g128"
               clip-path="url(#clipPath122)">
              <g
                 id="g126"
                 transform="translate(1674.2246,231.9678)">
                <path
                   id="path124"
                   style="fill:#bda392;fill-opacity:1;fill-rule:nonzero;stroke:none"
                   d="M 0,0 -206.225,-22.866 V -0.44 L 0,22.866 Z"
                   inkscape:connector-curvature="0" />
              </g>
            </g>
          </g>
        </g>
        <g
           id="g132">
          <g
             id="g134" />
          <g
             id="g146">
            <g
               style="opacity:0.5"
               id="g144"
               clip-path="url(#clipPath138)">
              <g
                 id="g142"
                 transform="translate(1579.5635,244.1357)">
                <path
                   id="path140"
                   style="fill:#a89182;fill-opacity:1;fill-rule:nonzero;stroke:none"
                   d="M 0,0 V -244.136 H -111.563 V -12.607 Z"
                   inkscape:connector-curvature="0" />
              </g>
            </g>
          </g>
        </g>
        <g
           transform="translate(1468)"
           id="g148">
          <path
             id="path150"
             style="fill:none;stroke:#000000;stroke-width:14;stroke-linecap:butt;stroke-linejoin:round;stroke-miterlimit:10;stroke-dasharray:none;stroke-opacity:1"
             d="m 0,0 v 231.527 l 206.225,23.307 V 0"
             inkscape:connector-curvature="0" />
        </g>
        <g
           transform="translate(580)"
           id="g152">
          <path
             id="path154"
             style="fill:#e8c9b3;fill-opacity:1;fill-rule:nonzero;stroke:#000000;stroke-width:14;stroke-linecap:butt;stroke-linejoin:round;stroke-miterlimit:10;stroke-dasharray:none;stroke-opacity:1"
             d="m 0,0 v 231.527 l -206.511,23.307 V 0"
             inkscape:connector-curvature="0" />
        </g>
        <g
           id="g156">
          <g
             id="g158" />
          <g
             id="g170">
            <g
               style="opacity:0.5"
               id="g168"
               clip-path="url(#clipPath162)">
              <g
                 id="g166"
                 transform="translate(373.4888,233.1123)">
                <path
                   id="path164"
                   style="fill:#bda392;fill-opacity:1;fill-rule:nonzero;stroke:none"
                   d="M 0,0 206.511,-24.011 V -1.585 L 0,21.722 Z"
                   inkscape:connector-curvature="0" />
              </g>
            </g>
          </g>
        </g>
        <g
           id="g172">
          <g
             id="g174" />
          <g
             id="g186">
            <g
               style="opacity:0.5"
               id="g184"
               clip-path="url(#clipPath178)">
              <g
                 id="g182"
                 transform="translate(469.6182,243.1816)">
                <path
                   id="path180"
                   style="fill:#a89182;fill-opacity:1;fill-rule:nonzero;stroke:none"
                   d="M 0,0 V -243.182 H 110.382 V -11.654 Z"
                   inkscape:connector-curvature="0" />
              </g>
            </g>
          </g>
        </g>
        <g
           transform="translate(580)"
           id="g188">
          <path
             id="path190"
             style="fill:none;stroke:#000000;stroke-width:14;stroke-linecap:butt;stroke-linejoin:round;stroke-miterlimit:10;stroke-dasharray:none;stroke-opacity:1"
             d="m 0,0 v 231.527 l -206.511,23.307 V 0"
             inkscape:connector-curvature="0" />
        </g>
      </g>
    </g>
    <g
       transform="matrix(0.06614583,0,0,-0.06614583,0.65875393,297.22132)"
       id="g192">
      <g
         clip-path="url(#clipPath198-7)"
         id="g194">
        <g
           transform="translate(1341.8438,1066.6738)"
           id="g200">
          <path
             id="path202"
             style="fill:#f5dbc9;fill-opacity:1;fill-rule:evenodd;stroke:none"
             d="m 0,0 1.75,-23.51 14.718,36.426 22.943,30.667 16.243,5.715 11.817,-7.439 6.601,-18.276 -4.124,-39.761 -7.905,-38.781 -0.531,-25.034 5.094,-26.072 -8.534,-14.96 -10.233,-16.313 -10.492,-23.359 -5.998,-22.927 -10.682,-12.78 -10.922,1.033 -9.745,-40.213 -11.318,-43.68 -19.938,-51.988 c 0,0 -28.406,-62.681 -28.987,-63.904 -0.581,-1.224 -23.813,-47.595 -23.813,-47.595 l -35.705,-53.354 c 0,0 -31.985,-36.731 -33.841,-38.552 -1.855,-1.822 -52.341,-41.269 -52.341,-41.269 l -59.391,-25.203 -53.51,-3.545 h -52.5 l -42.848,17.426 -36.453,21.866 -35.396,29.596 -25.901,28.202 -38.714,54.115 -28.865,55.041 -27.822,59.095 -23.002,57.298 -15.143,49.666 -7.331,37.109 -13.387,0.704 -14.854,5.299 -9.725,25.478 -10.92,24.028 -8.857,17.735 -11.457,18.226 2.982,17.164 2.52,15.488 -3.055,30.109 -7.524,36.293 -1.907,34.38 8.166,17.998 15.278,8.223 36.716,-42.144 -6.806,36.139 -1.276,33.155 10.719,-1.199 2.637,23.615 2.218,41.987 10.749,38.57 10.758,-8.072 5.4,38.014 6.503,31.814 11.259,17.058 3.338,-2.386 23.121,62.222 12.71,21.041 23.938,16.643 31.675,5.989 47.056,3.855 51.506,-2.695 28.994,-3.055 43.461,-4.5 47.518,-0.817 37.552,-1.974 29.992,1.076 38.477,1.215 h 34 l 35.476,3.125 14.524,-11.125 22.443,-13.78 15.627,-9.086 6.276,-16.803 -0.346,-27.831 3.5,-45 2.5,-27.5 1,-20.5 7,-12 10,1 1,-29.5 1.5,-23 8,-26 8,-20.5 5.498,-12.151 9.834,4.589 7.329,-33.789 z"
             inkscape:connector-curvature="0" />
        </g>
        <g
           transform="translate(1135.1973,1455.0273)"
           id="g204">
          <path
             id="path206"
             style="fill:#e8c9b3;fill-opacity:1;fill-rule:evenodd;stroke:none"
             d="m 0,0 c 54.803,-80.438 125.374,-356.146 125.374,-356.146 l -61.209,-76.217 c 0,0 84.638,-72.074 84.638,-104.074 0,-32 -31.315,-204.176 -42,-220 -10.686,-15.825 -150.5,-154 -169.25,-168 -18.75,-14 -62.245,-8 -62.245,-8 l -2.988,943 c 0,0 72.877,69.875 127.68,-10.563"
             inkscape:connector-curvature="0" />
        </g>
        <g
           transform="translate(894.0117,1450.0273)"
           id="g208">
          <path
             id="path210"
             style="fill:#e8c9b3;fill-opacity:1;fill-rule:evenodd;stroke:none"
             d="m 0,0 c -54.604,-80.438 -124.92,-356.146 -124.92,-356.146 l 60.987,-76.217 c 0,0 -84.331,-72.074 -84.331,-104.074 0,-32 31.201,-204.176 41.848,-220 10.646,-15.825 149.955,-154 168.637,-168 18.682,-14 62.02,-8 62.02,-8 v 943 C 124.241,10.563 54.604,80.438 0,0"
             inkscape:connector-curvature="0" />
        </g>
        <g
           transform="translate(1024.7715,765)"
           id="g212">
          <path
             id="path214"
             style="fill:#804734;fill-opacity:1;fill-rule:evenodd;stroke:none"
             d="m 0,0 c 0,0 0.812,1.586 21.479,2.25 5.351,0.172 19.081,-2.976 35.417,-0.916 20.738,2.613 45.517,10.419 60.931,9 21.734,-2 35.847,-11.834 43.652,-26.584 7.526,-14.225 14.618,-35.1 17.083,-43.164 2.464,-8.065 3.667,-24.996 3.667,-24.996 0,0 27.667,29.67 43,53.666 15.333,23.996 40.666,82.005 49.333,105.333 8.667,23.328 11.52,50.496 16.667,75.334 5.146,24.838 12.238,53.765 15.333,74 3.094,20.234 6.667,43.596 6.667,43.596 l 6.667,0.786 7.942,-82.493 -4.074,-92.11 -18.628,-73.081 -42.574,-110.699 -33.379,-57.531 -22.471,-34.206 -27.741,-34.775 -35.126,-34.228 -40.009,-27.825 -42.848,-18.573 -33.634,-5.784 -29.125,0.107 -13,-0.107 13.099,163.163 23.201,1.49 c 0,0 7.245,-11.143 18.367,-19.462 11.833,-8.851 21.583,-11.186 47.833,-10.101 26.25,1.085 42.304,17.128 50,28.073 7.695,10.945 10.695,13.004 13.5,29.504 1.578,9.284 -2.508,23.88 -5.27,32.034 -2.246,6.632 -8.186,21.9 -16.063,23.966 -9.242,2.424 -21.359,-3.247 -34.334,-5.666 -23.25,-4.334 -55.329,-8.918 -68.496,-9.752 -10.621,-0.673 -28,2.834 -28,2.834 L -1.771,0"
             inkscape:connector-curvature="0" />
        </g>
        <g
           transform="translate(1024.2031,765)"
           id="g216">
          <path
             id="path218"
             style="fill:#804734;fill-opacity:1;fill-rule:evenodd;stroke:none"
             d="m 0,0 c 0,0 -0.812,1.586 -21.478,2.25 -5.352,0.172 -19.081,-2.976 -35.417,-0.916 -20.738,2.613 -45.518,10.419 -60.932,9 -21.733,-2 -35.846,-11.834 -43.651,-26.584 -7.526,-14.225 -14.618,-35.1 -17.083,-43.164 -2.465,-8.065 -3.667,-24.996 -3.667,-24.996 0,0 -30.642,27.914 -45.975,51.91 -15.333,23.996 -48.833,76.172 -57.5,99.5 -8.667,23.328 -21.278,49.071 -26.424,73.909 -5.147,24.838 -12.481,51.958 -15.576,72.193 -3.095,20.234 -7,48.699 -7,48.699 l -13.862,24.738 5.482,-103.111 9.88,-89.428 20.5,-78 50.142,-106.078 33.379,-57.531 22.471,-34.206 27.741,-34.775 35.126,-34.228 40.009,-27.825 42.847,-18.573 33.635,-5.784 29.124,0.107 13,-0.107 -13.099,163.163 -23.201,1.49 c 0,0 -7.245,-11.143 -18.366,-19.462 -11.833,-8.851 -21.583,-11.186 -47.833,-10.101 -26.25,1.085 -42.305,17.128 -50,28.073 -7.695,10.945 -10.695,13.004 -13.5,29.504 -1.578,9.284 2.508,23.88 5.27,32.034 2.246,6.632 8.185,21.9 16.063,23.966 9.241,2.424 21.358,-3.247 34.334,-5.666 23.25,-4.334 55.328,-8.918 68.495,-9.752 10.621,-0.673 28,2.834 28,2.834 L 1.771,0"
             inkscape:connector-curvature="0" />
        </g>
        <g
           transform="translate(683.1255,932.3398)"
           id="g220">
          <path
             id="path222"
             style="fill:#8a5242;fill-opacity:1;fill-rule:evenodd;stroke:none"
             d="m 0,0 c 0,0 52.208,-142.488 70.875,-187.286 18.666,-44.798 71.104,-117.973 85.333,-137.862 14.229,-19.89 45.784,-64.273 83.118,-77.606 37.333,-13.333 86.187,-23.33 120.174,-16.664 33.986,6.666 51.214,5.609 90.042,29.334 38.827,23.725 52.75,21.955 86,75.135 33.249,53.179 50.485,77.975 62,105.24 11.514,27.265 23.46,55.994 36.666,85.236 13.205,29.243 36.151,93.664 36.151,93.664 l -16.342,-93.664 -27.371,-74.601 -27.712,-67.434 -50.576,-82.647 -43.241,-49.878 -46.867,-38.071 -55.616,-27.452 -56.291,-4.865 -29.472,-0.107 -57.295,15.747 -31.096,9.494 -59.247,46.585 -36.937,42.844 -26.429,39.909 -20.918,39.887 -16.171,40.298 -24.513,47.478 -20.057,48.534 -11.445,48.636 -8.555,44.031 z"
             inkscape:connector-curvature="0" />
        </g>
        <g
           transform="translate(673.0005,1068)"
           id="g224">
          <path
             id="path226"
             style="fill:none;stroke:#110806;stroke-width:14;stroke-linecap:round;stroke-linejoin:round;stroke-miterlimit:10;stroke-dasharray:none;stroke-opacity:1"
             d="m 0,0 c 0,0 8.586,-157.324 18,-209 15.371,-84.383 63.189,-172.387 79.905,-208.707 13.436,-29.192 56.607,-102.785 116.211,-146.078 59.938,-43.536 94.468,-41.53 135.884,-42.215"
             inkscape:connector-curvature="0" />
        </g>
        <g
           transform="translate(1347,1028.1074)"
           id="g228">
          <path
             id="path230"
             style="fill:none;stroke:#110906;stroke-width:14;stroke-linecap:round;stroke-linejoin:round;stroke-miterlimit:10;stroke-dasharray:none;stroke-opacity:1"
             d="m 0,0 c 0,0 12.316,-116.352 3,-168 -15.211,-84.337 -61.457,-172.699 -78,-209 -13.295,-29.177 -56.018,-102.73 -115,-146 -59.314,-43.513 -93.012,-43.563 -134,-43"
             inkscape:connector-curvature="0" />
        </g>
        <g
           transform="translate(1344.0811,1035.5283)"
           id="g232">
          <path
             id="path234"
             style="fill:#7b402e;fill-opacity:1;fill-rule:nonzero;stroke:none"
             d="M 0,0 C 0,0 -5.584,95 -13.75,106.5 L -23,100 c -33.749,66.334 -17.251,102.344 -26.5,117.25 l -8.25,-7.75 c -15.166,15.167 -10.168,140.332 -15.501,149.833 -12.666,6.333 -53.999,36.417 -53.999,36.417 0,0 -151.667,-3.417 -186.25,-2.5 -34.583,0.917 -85.687,7.838 -120.417,10.702 -44.626,3.679 -128.403,-7.117 -137.583,-16.952 -28,-30 -45.5,-94.25 -45.5,-94.25 l -3.75,6.25 C -638,277.75 -640,208.75 -640,208.75 l -12.25,10.5 c -17.827,-15.645 -12.167,-108.667 -14.167,-107.667 -2,1 -11.583,9.167 -11.583,9.167 -6.5,-25.5 8.25,-81.25 8.25,-81.25 -26.125,55.375 -39.749,47.951 -39.749,47.951 0,0 4.249,13.049 -2.751,31.218 0,0 7,28.581 -7.334,42 14.834,34.331 22.584,92.831 35,135.999 0,0 -8.416,1.332 -14,-3.667 -1.834,8.752 38.584,58.999 29,87.999 0,0 53.584,6.5 53.334,37.667 -34.251,15.667 -56,44.666 -56,44.666 0,0 46.25,-14.583 86,-2.666 -9.751,10.917 -36,23.666 -36,23.666 0,0 16.5,3.167 38,1.001 -18.25,55.416 1.334,101.666 1.334,101.666 0,0 23.166,-22.75 28.667,-66 20.749,47 79.666,97.667 79.666,97.667 0,0 0.583,-24.917 -9,-50 53.583,59.833 96.333,66 96.333,66 0,0 -7.75,-13.667 -6.667,-21 27.333,23.667 92,43 92,43 0,0 1.167,-6.417 -2.333,-15.334 6,2.834 12,13.667 12,13.667 0,0 -3,-6.75 0,-11.333 31.25,27.417 41.666,25 41.666,25 0,0 -0.666,-22.667 4.334,-26 11.75,17.667 23.666,27 23.666,27 0,0 -0.666,-9.917 6.667,-23 5.833,17.667 13.667,25 13.667,25 0,0 49.25,-12.417 84.001,-5.667 16.499,-60.25 46.333,-97.667 46.333,-97.667 0,0 4.166,22.417 13.667,27 C -62,575.5 -44.75,483.25 -44.75,483.25 c 0,0 15,44.25 47.167,52.083 C -24.5,499.5 -27.249,453 -27.249,453 c 0,0 15.749,21.5 50.666,15.333 C 5.584,458.417 -28,403.25 -25.249,381.334 -10.498,374.918 14,355.75 15.417,342.667 c -19.917,4.583 -42.666,0 -42.666,0 C 49.417,273.5 38.417,213.334 38.417,213.334 l -11,2.667 C 56.5,159 48.25,121.625 48.25,121.625 l -12.5,6.5 c 0,0 9.789,-12.937 12.081,-41.937 C 47.831,86.188 22.5,87.5 0,0"
             inkscape:connector-curvature="0" />
        </g>
        <g
           transform="translate(1340.584,1099.7578)"
           id="g236">
          <path
             id="path238"
             style="fill:#623426;fill-opacity:1;fill-rule:nonzero;stroke:none"
             d="m 0,0 11.583,0.829 c 0,0 15.249,11.42 16.667,14 0.614,2.007 0,4.5 0,4.5 -25.667,28.836 -17.334,63.836 -15.833,91.332 -6.668,-4.162 -15.834,-6 -15.834,-6 -1.166,5.497 -5.167,50.504 -1,64.667 -42,0.336 -27.666,42.499 -27.666,42.499 -14.668,13.171 -8.5,89.5 -8.5,89.5 0,0 8.332,-4.33 14.499,-9.163 -19.667,33.5 -50.999,43.663 -50.999,43.663 4.166,38.67 29.5,61.333 29.5,61.333 0,0 -20.834,2.338 -39.5,-14.667 -0.334,22.171 3.833,73.5 3.833,73.5 0,0 -22.334,-6.829 -35.333,-38.667 0.332,31.504 15.833,47.333 15.833,47.333 0,0 -37.333,-1.829 -61.833,-37.166 7.5,59.17 41,133.833 41,133.833 0,0 -51.167,-10.496 -60.167,-44.167 -1.5,18.338 1.167,31 1.167,31 0,0 -19.167,-9.995 -26.167,-44 1,17.505 0,29 0,29 0,0 -37.5,-48.162 -55.835,-100.833 -6.259,64.976 6,120.5 6,120.5 0,0 -16.665,-9.162 -26.833,-29 -2.165,6.005 2.833,17 2.833,17 0,0 -47.499,-25.495 -71.332,-52.333 3.215,13.972 7.167,22.667 7.167,22.667 0,0 -66.167,-22.663 -78.667,-50 -3.501,27.004 -1.833,48.166 -1.833,48.166 0,0 -33.501,-32.329 -36.501,-61.165 -5.924,6.052 -6.833,14.666 -6.833,14.666 -8.834,-20.496 -17.429,-19.725 -19.667,-45.833 -42.167,-1.33 -48.166,4.834 -48.166,4.834 0,0 -5.501,-12.331 25.833,-36.333 -33.667,-3.164 -34.667,6.833 -34.667,6.833 0,0 -2.667,-11.164 7.334,-19.166 -21.696,-3.985 -39.5,-2.5 -39.5,-2.5 0,0 30.833,-32.164 -37.833,-68.834 4.331,-1.663 9.166,-1.333 9.166,-1.333 -5.835,-14.497 -32.335,-13.497 -40.833,-35.166 41.665,0.669 4.998,-36.998 -7.5,-38.666 21.165,-13.332 -20.502,-59.498 -22.333,-81 -3.002,1.668 -4.667,4.167 -4.667,4.167 0,0 -3.336,-41.831 -2.167,-69.165 -3.169,0.334 -5.833,3.166 -5.833,3.166 0,0 2.498,-20.165 1.667,-34.666 6.831,1.501 10,-1.167 10,-1.167 l 13.916,6.584 4,53.5 13.082,46.939 12.25,-10.5 15.918,90.811 10,-7 9.5,43.272 18,31.228 18.5,19.5 22,7 32.5,3.5 c 0,0 30,2 33,2 3,0 46.5,2.5 46.5,2.5 l 31.5,-3.5 41.5,-5 h 43.5 l 44,-3 26.5,1 47.5,1.5 h 54 l 20.5,-0.5 9.5,-7.5 28.5,-17.5 11,-9.5 4,-15.5 0.5,-53 5.5,-57 7.5,-23 11,4 4.5,-58 9,-37 13,-20 c 0,0 7,8.5 7.5,7 0.5,-1.5 7.5,-24 7.5,-24 z"
             inkscape:connector-curvature="0" />
        </g>
        <g
           transform="translate(826.25,1438.8398)"
           id="g240">
          <path
             id="path242"
             style="fill:#7b402e;fill-opacity:1;fill-rule:nonzero;stroke:none"
             d="M 0,0 C -8.375,6.625 -14.75,8.5 -14.75,8.5 -14.75,8.5 0,8 8.5,2"
             inkscape:connector-curvature="0" />
        </g>
        <g
           transform="translate(879,1460.5898)"
           id="g244">
          <path
             id="path246"
             style="fill:#7a3f2f;fill-opacity:1;fill-rule:nonzero;stroke:none"
             d="M 0,0 C 17.125,8.375 7.75,27 90.125,62.875 39.875,23.75 42,15.75 42,15.75 42,15.75 19.75,2.375 0,0"
             inkscape:connector-curvature="0" />
        </g>
        <g
           transform="translate(1030,1515.9648)"
           id="g248">
          <path
             id="path250"
             style="fill:#7a3f2e;fill-opacity:1;fill-rule:nonzero;stroke:none"
             d="m 0,0 c -9,-12.375 -25.25,-15.5 -34.125,-33 -10,-18.625 -1.672,-26.986 -1.5,-34.75 C -21.625,-53 1.248,-41.5 0,0"
             inkscape:connector-curvature="0" />
        </g>
        <g
           transform="translate(1062.75,1433.0898)"
           id="g252">
          <path
             id="path254"
             style="fill:#7b402e;fill-opacity:1;fill-rule:nonzero;stroke:none"
             d="M 0,0 C 5.375,6.25 11.875,12.625 20,33.875 17.125,14.375 13.75,5.75 9.125,0"
             inkscape:connector-curvature="0" />
        </g>
        <g
           transform="translate(1141.5,1541.0898)"
           id="g256">
          <path
             id="path258"
             style="fill:#7a3f2e;fill-opacity:1;fill-rule:nonzero;stroke:none"
             d="M 0,0 C -7.25,-24.75 -9.875,-35.25 -12.625,-53.125 -4.625,-45.5 0.365,-24 0,0"
             inkscape:connector-curvature="0" />
        </g>
        <g
           transform="translate(1196,1454.4648)"
           id="g260">
          <path
             id="path262"
             style="fill:#7b3f2e;fill-opacity:1;fill-rule:nonzero;stroke:none"
             d="M 0,0 C -2.5,2 -6.25,3.5 -6.25,3.5 -6.318,9.75 -3.75,23.75 7,33.5 -2.125,16.75 -0.125,4.75 0,0"
             inkscape:connector-curvature="0" />
        </g>
        <g
           transform="translate(1344.082,1035.5283)"
           id="g264">
          <path
             id="path266"
             style="fill:none;stroke:#48261a;stroke-width:13;stroke-linecap:round;stroke-linejoin:round;stroke-miterlimit:10;stroke-dasharray:none;stroke-opacity:1"
             d="M 0,0 C 0,0 -5.584,95 -13.75,106.5 L -23,100 c -33.75,66.334 -17.252,102.345 -26.5,117.25 l -8.25,-7.75 c -15.166,15.167 -10.168,140.332 -15.502,149.833 -12.666,6.333 -53.998,36.417 -53.998,36.417 0,0 -151.668,-3.417 -186.25,-2.5 -34.583,0.917 -85.687,7.838 -120.417,10.702 -44.626,3.679 -128.404,-7.117 -137.583,-16.952 -28,-30 -45.5,-94.25 -45.5,-94.25 l -3.75,6.25 C -638,277.75 -640,208.75 -640,208.75 l -12.25,10.5 c -17.827,-15.646 -12.167,-108.667 -14.167,-107.667 -2,1 -11.583,9.167 -11.583,9.167 -6.5,-25.5 8.25,-81.25 8.25,-81.25 -26.125,55.375 -39.927,47.077 -39.927,47.077 0,0 4.427,13.923 -2.574,32.092 0,0 7.001,28.581 -7.333,42 14.834,34.331 22.584,92.831 35,135.999 0,0 -8.416,1.332 -14,-3.667 -1.834,8.752 38.584,58.999 29,87.999 0,0 53.584,6.5 53.333,37.667 -34.25,15.667 -56,44.666 -56,44.666 0,0 46.251,-14.583 86,-2.666 -9.75,10.917 -36,23.666 -36,23.666 0,0 16.501,3.167 38,1.001 -18.249,55.416 1.335,101.666 1.335,101.666 0,0 23.166,-22.75 28.666,-66 20.75,47 79.667,97.667 79.667,97.667 0,0 0.583,-24.917 -9,-50 53.583,59.833 96.332,66 96.332,66 0,0 -7.749,-13.667 -6.666,-21 27.333,23.667 91.999,43 91.999,43 0,0 1.168,-6.417 -2.332,-15.334 6,2.834 12,13.667 12,13.667 0,0 -3,-6.75 0,-11.333 31.25,27.417 41.666,25 41.666,25 0,0 -0.666,-22.667 4.334,-26 11.75,17.667 23.666,27 23.666,27 0,0 -0.666,-9.917 6.666,-23 5.834,17.667 13.668,25 13.668,25 0,0 49.25,-12.417 84,-5.667 16.5,-60.25 46.334,-97.667 46.334,-97.667 0,0 4.166,22.417 13.666,27 -3.75,-19.833 13.5,-112.083 13.5,-112.083 0,0 15,44.25 47.166,52.083 C -24.5,499.5 -27.25,453 -27.25,453 c 0,0 15.75,21.5 50.666,15.333 C 5.584,458.417 -28,403.25 -25.25,381.334 -10.498,374.918 14,355.75 15.416,342.667 c -19.916,4.583 -42.666,0 -42.666,0 C 49.416,273.5 38.416,213.334 38.416,213.334 l -11,2.667 C 56.5,159 48.25,121.625 48.25,121.625 l -12.5,6.5 c 0,0 9.789,-12.937 12.08,-41.937 C 47.83,86.188 22.5,87.5 0,0"
             inkscape:connector-curvature="0" />
        </g>
        <g
           transform="translate(1351.25,1017.3398)"
           id="g268">
          <path
             id="path270"
             style="fill:none;stroke:#110906;stroke-width:8;stroke-linecap:round;stroke-linejoin:round;stroke-miterlimit:10;stroke-dasharray:none;stroke-opacity:1"
             d="m 0,0 c 6.25,19.5 1.25,18.75 5,40.5 3.75,21.75 22.25,52 32.25,56.5 10,4.5 15.75,-0.5 21,-6 5.25,-5.5 7,-18.5 6.25,-33.25 C 63.75,43 53.5,4 51.75,-11.75 50,-27.5 54,-40.75 56.25,-49.5 58.5,-58.25 56.75,-60.25 52.5,-66.25 50.285,-69.377 39.485,-84.045 32.333,-100 c -6.57,-14.66 -9.604,-30.726 -10.083,-33 -1,-4.75 -2.768,-7.617 -7.665,-11.965 C 9.688,-149.312 0,-149.5 0,-149.5"
             inkscape:connector-curvature="0" />
        </g>
        <g
           transform="translate(1371.833,1056.2568)"
           id="g272">
          <path
             id="path274"
             style="fill:none;stroke:#110906;stroke-width:8;stroke-linecap:round;stroke-linejoin:round;stroke-miterlimit:10;stroke-dasharray:none;stroke-opacity:1"
             d="m 0,0 c 0,0 2.5,18.834 17.167,29.667 5.25,-6.084 3.999,-35.833 3.333,-38.5"
             inkscape:connector-curvature="0" />
        </g>
        <g
           transform="translate(1375.5,1047.9648)"
           id="g276">
          <path
             id="path278"
             style="fill:none;stroke:#110906;stroke-width:8;stroke-linecap:round;stroke-linejoin:round;stroke-miterlimit:10;stroke-dasharray:none;stroke-opacity:1"
             d="m 0,0 c 0,0 6.625,-5.125 10.125,-13.875 3.5,-8.75 2.125,-53.875 2.125,-53.875"
             inkscape:connector-curvature="0" />
        </g>
        <g
           transform="translate(1363.875,1011.7148)"
           id="g280">
          <path
             id="path282"
             style="fill:none;stroke:#110906;stroke-width:8;stroke-linecap:round;stroke-linejoin:round;stroke-miterlimit:10;stroke-dasharray:none;stroke-opacity:1"
             d="m 0,0 c 0,0 5.5,-18.125 -4.5,-31.5 0,0 -2,10.5 -5.125,9.625 -3.125,-0.875 -0.826,-9.625 -0.826,-9.625 0,0 15.951,-9.875 16.201,-42.875"
             inkscape:connector-curvature="0" />
        </g>
        <g
           transform="translate(1380.75,951.9648)"
           id="g284">
          <path
             id="path286"
             style="fill:none;stroke:#110906;stroke-width:8;stroke-linecap:round;stroke-linejoin:round;stroke-miterlimit:10;stroke-dasharray:none;stroke-opacity:1"
             d="M 0,0 C 0,0 2.5,-8.5 -3.625,-19.625"
             inkscape:connector-curvature="0" />
        </g>
        <g
           transform="translate(677.0005,1020.9141)"
           id="g288">
          <path
             id="path290"
             style="fill:none;stroke:#110906;stroke-width:8;stroke-linecap:round;stroke-linejoin:round;stroke-miterlimit:10;stroke-dasharray:none;stroke-opacity:1"
             d="M 0,0 C -6.266,19.5 -1.252,18.75 -5.012,40.5 -8.773,62.25 -27.32,92.5 -37.348,97 -47.373,101.5 -53.139,96.5 -58.402,91 -63.666,85.5 -65.42,72.5 -64.668,57.75 -63.916,43 -53.639,4 -51.885,-11.75 c 1.754,-15.75 -2.256,-29 -4.511,-37.75 -2.256,-8.75 -0.502,-10.75 3.759,-16.75 2.221,-3.127 13.049,-17.795 20.219,-33.75 6.588,-14.66 9.631,-30.726 10.109,-33 1.004,-4.75 2.776,-7.617 7.686,-11.965 4.91,-4.347 23.998,-4.535 23.998,-4.535"
             inkscape:connector-curvature="0" />
        </g>
        <g
           transform="translate(656.3638,1059.8311)"
           id="g292">
          <path
             id="path294"
             style="fill:none;stroke:#110906;stroke-width:8;stroke-linecap:round;stroke-linejoin:round;stroke-miterlimit:10;stroke-dasharray:none;stroke-opacity:1"
             d="m 0,0 c 0,0 -2.506,18.834 -17.211,29.667 -5.264,-6.084 -4.01,-35.833 -3.342,-38.5"
             inkscape:connector-curvature="0" />
        </g>
        <g
           transform="translate(652.688,1051.5391)"
           id="g296">
          <path
             id="path298"
             style="fill:none;stroke:#110906;stroke-width:8;stroke-linecap:round;stroke-linejoin:round;stroke-miterlimit:10;stroke-dasharray:none;stroke-opacity:1"
             d="m 0,0 c 0,0 -6.643,-5.125 -10.152,-13.875 -3.508,-8.75 -2.131,-53.875 -2.131,-53.875"
             inkscape:connector-curvature="0" />
        </g>
        <g
           transform="translate(664.3423,1015.2891)"
           id="g300">
          <path
             id="path302"
             style="fill:none;stroke:#110906;stroke-width:8;stroke-linecap:round;stroke-linejoin:round;stroke-miterlimit:10;stroke-dasharray:none;stroke-opacity:1"
             d="m 0,0 c 0,0 -5.514,-18.125 4.512,-31.5 0,0 2.006,10.5 5.138,9.625 3.133,-0.875 0.829,-9.625 0.829,-9.625 0,0 -15.993,-9.875 -16.243,-42.875"
             inkscape:connector-curvature="0" />
        </g>
        <g
           transform="translate(647.4243,955.5391)"
           id="g304">
          <path
             id="path306"
             style="fill:none;stroke:#110906;stroke-width:8;stroke-linecap:round;stroke-linejoin:round;stroke-miterlimit:10;stroke-dasharray:none;stroke-opacity:1"
             d="M 0,0 C 0,0 -2.508,-8.5 3.635,-19.625"
             inkscape:connector-curvature="0" />
        </g>
        <g
           transform="translate(1084.5635,1111)"
           id="g308">
          <path
             id="path310"
             style="fill:#d1b096;fill-opacity:1;fill-rule:evenodd;stroke:none"
             d="m 0,0 c 0,0 -18.006,-42.542 -18.006,-47.857 0,-4.727 17.528,-41.247 17.528,-41.247 l 147.621,28.087 9.373,-6.733 6.805,11.648 -13.864,8.245 28.48,44.357 -84.692,11.784 z"
             inkscape:connector-curvature="0" />
        </g>
        <g
           transform="translate(1092.0771,1041.748)"
           id="g312">
          <path
             id="path314"
             style="fill:#ffffff;fill-opacity:1;fill-rule:evenodd;stroke:none"
             d="m 0,0 c 46.559,16.401 142.215,19.588 156.04,-14.947 2.331,-5.824 2.746,-19.252 -2.629,-26.762 -20.537,-28.691 -140.322,-13.52 -157.352,1.222 -9.032,7.818 -16.7,22.264 -4.388,35.258 C -6.257,-3.043 -3.524,-1.242 0,0"
             inkscape:connector-curvature="0" />
        </g>
        <g
           transform="translate(1200.0303,1024.6074)"
           id="g316">
          <path
             id="path318"
             style="fill:#3884ff;fill-opacity:1;fill-rule:evenodd;stroke:none"
             d="m 0,0 c -2.089,-21.268 -21.023,-36.815 -42.292,-34.726 -21.268,2.089 -36.814,21.024 -34.726,42.291 0.732,7.452 3.531,14.201 7.775,19.735 l 57.599,4.334 C -3.437,23.705 1.202,12.238 0,0"
             inkscape:connector-curvature="0" />
        </g>
        <g
           transform="translate(1123.2705,1022.4932)"
           id="g320">
          <path
             id="path322"
             style="fill:#2f5f9e;fill-opacity:1;fill-rule:evenodd;stroke:none"
             d="m 0,0 c 28.741,7.231 76.128,-2.02 76.128,-2.02 0,0 2.984,20.796 -8.966,32.964 C 55.464,33.527 7.401,28.449 7.401,28.449 7.401,28.449 -2.307,17.213 0,0"
             inkscape:connector-curvature="0" />
        </g>
        <g
           transform="translate(1200.0303,1024.6074)"
           id="g324">
          <path
             id="path326"
             style="fill:none;stroke:#1e2570;stroke-width:5;stroke-linecap:butt;stroke-linejoin:miter;stroke-miterlimit:10;stroke-dasharray:none;stroke-opacity:1"
             d="m 0,0 c -2.089,-21.268 -21.023,-36.815 -42.292,-34.726 -21.268,2.089 -36.814,21.024 -34.726,42.291 0.732,7.452 3.531,14.201 7.775,19.735 l 57.599,4.334 C -3.437,23.705 1.202,12.238 0,0 Z"
             inkscape:connector-curvature="0" />
        </g>
        <g
           transform="translate(1172.9375,1023.0732)"
           id="g328">
          <path
             id="path330"
             style="fill:#000c2b;fill-opacity:1;fill-rule:evenodd;stroke:none"
             d="m 0,0 c -0.642,-6.53 -6.455,-11.303 -12.985,-10.662 -6.53,0.641 -11.304,6.455 -10.662,12.984 0.641,6.531 6.455,11.305 12.984,10.663 C -4.133,12.344 0.642,6.53 0,0"
             inkscape:connector-curvature="0" />
        </g>
        <g
           transform="translate(1190.5156,1036.1611)"
           id="g332">
          <path
             id="path334"
             style="fill:#d6e1ff;fill-opacity:1;fill-rule:evenodd;stroke:none"
             d="m 0,0 c -0.68,-6.918 -6.838,-11.976 -13.756,-11.296 -6.917,0.68 -11.973,6.838 -11.294,13.757 0.679,6.917 6.838,11.974 13.755,11.295 C -4.377,13.076 0.68,6.917 0,0"
             inkscape:connector-curvature="0" />
        </g>
        <g
           transform="translate(1097.3418,1040.1133)"
           id="g336">
          <path
             id="path338"
             style="fill:#0e140e;fill-opacity:1;fill-rule:evenodd;stroke:none"
             d="m 0,0 c 7.962,1.357 41.289,11.562 68.037,11.324 53.143,0.823 61.159,-8.398 68.568,-12.472 7.408,-4.074 14.17,-12.165 14.17,-12.165 0,0 0.234,6.602 -1.987,11.289 -14.227,23.863 -52.536,22.655 -88.589,19.537 -65.569,-5.672 -72.977,-20.3 -72.977,-20.3 0,0 4.816,1.429 12.778,2.787"
             inkscape:connector-curvature="0" />
        </g>
        <g
           transform="translate(1105.5537,1053.9668)"
           id="g340">
          <path
             id="path342"
             style="fill:#000000;fill-opacity:1;fill-rule:evenodd;stroke:none"
             d="M 0,0 C 0,0 71.729,29.445 129.851,7.96 136.847,5.375 141.861,0.449 144.51,-7.343 130.473,4.553 83.2,21.308 0,0"
             inkscape:connector-curvature="0" />
        </g>
        <g
           transform="translate(1066.5576,1101.8804)"
           id="g344">
          <path
             id="path346"
             style="fill:#623426;fill-opacity:1;fill-rule:evenodd;stroke:none"
             d="m 0,0 c 10.783,23.47 18.711,30.13 25.372,35.522 101.177,11.101 155.955,-8.246 155.955,-8.246 0,0 25.781,-20.669 30.539,-31.426 C 184.906,7.295 156.362,9.833 156.362,9.833 156.362,9.833 19.03,13.321 0,0"
             inkscape:connector-curvature="0" />
        </g>
        <g
           transform="translate(935,1115)"
           id="g348">
          <path
             id="path350"
             style="fill:#d1b096;fill-opacity:1;fill-rule:evenodd;stroke:none"
             d="m 0,0 c 0,0 21.349,-46.42 21.349,-51.734 0,-4.727 -17.433,-41.246 -17.433,-41.246 l -146.807,28.086 -9.321,-6.733 -6.767,11.648 13.788,8.245 L -172,-5.5 -87.982,4.284 Z"
             inkscape:connector-curvature="0" />
        </g>
        <g
           transform="translate(933.7798,1042.9043)"
           id="g352">
          <path
             id="path354"
             style="fill:#ffffff;fill-opacity:1;fill-rule:evenodd;stroke:none"
             d="M 0,0 C -47.137,16.22 -149.072,30.588 -161.47,-25.869 -170.285,-66.01 -15.803,-61.418 4.51,-43.936 13.637,-36.08 20.912,-18.144 8.434,-5.197 6.334,-3.019 3.567,-1.228 0,0"
             inkscape:connector-curvature="0" />
        </g>
        <g
           transform="translate(824.5728,1025.3369)"
           id="g356">
          <path
             id="path358"
             style="fill:#3884ff;fill-opacity:1;fill-rule:evenodd;stroke:none"
             d="m 0,0 c 2.147,-21.261 21.331,-36.736 42.849,-34.563 21.515,2.172 37.217,21.17 35.07,42.432 -0.752,7.45 -3.595,14.189 -7.897,19.707 l -58.29,4.107 C 3.44,23.722 -1.235,12.236 0,0"
             inkscape:connector-curvature="0" />
        </g>
        <g
           transform="translate(902.2456,1023.5244)"
           id="g360">
          <path
             id="path362"
             style="fill:#2f5f9e;fill-opacity:1;fill-rule:evenodd;stroke:none"
             d="m 0,0 c -29.093,7.12 -77.027,-2.318 -77.027,-2.318 0,0 -3.053,20.786 9.021,33.002 11.831,2.63 60.473,-2.261 60.473,-2.261 0,0 9.841,-11.199 7.533,-28.423"
             inkscape:connector-curvature="0" />
        </g>
        <g
           transform="translate(824.5728,1025.3369)"
           id="g364">
          <path
             id="path366"
             style="fill:none;stroke:#1e2570;stroke-width:5;stroke-linecap:butt;stroke-linejoin:miter;stroke-miterlimit:10;stroke-dasharray:none;stroke-opacity:1"
             d="m 0,0 c 2.147,-21.261 21.331,-36.736 42.849,-34.563 21.515,2.172 37.217,21.17 35.07,42.432 -0.752,7.45 -3.595,14.189 -7.897,19.707 l -58.29,4.107 C 3.44,23.722 -1.235,12.236 0,0 Z"
             inkscape:connector-curvature="0" />
        </g>
        <g
           transform="translate(851.9897,1023.9092)"
           id="g368">
          <path
             id="path370"
             style="fill:#000c2b;fill-opacity:1;fill-rule:evenodd;stroke:none"
             d="M 0,0 C 0.659,-6.528 6.549,-11.278 13.156,-10.611 19.762,-9.944 24.583,-4.112 23.923,2.416 23.264,8.944 17.375,13.695 10.769,13.028 4.162,12.361 -0.659,6.528 0,0"
             inkscape:connector-curvature="0" />
        </g>
        <g
           transform="translate(865.7344,1039.3662)"
           id="g372">
          <path
             id="path374"
             style="fill:#d6e1ff;fill-opacity:1;fill-rule:evenodd;stroke:none"
             d="m 0,0 c 0.699,-6.916 6.937,-11.95 13.937,-11.244 6.997,0.707 12.105,6.887 11.406,13.803 C 24.645,9.474 18.405,14.506 11.408,13.8 4.409,13.093 -0.698,6.915 0,0"
             inkscape:connector-curvature="0" />
        </g>
        <g
           transform="translate(928.4551,1041.248)"
           id="g376">
          <path
             id="path378"
             style="fill:#0e140e;fill-opacity:1;fill-rule:evenodd;stroke:none"
             d="m 0,0 c -8.059,1.327 -41.797,11.401 -68.862,11.059 -53.773,0.615 -61.871,-8.64 -69.361,-12.744 -7.489,-4.102 -14.319,-12.22 -14.319,-12.22 0,0 -0.246,6.6 1.993,11.297 14.359,23.921 53.123,22.864 89.609,19.886 66.355,-5.415 73.873,-20.014 73.873,-20.014 0,0 -4.875,1.41 -12.933,2.736"
             inkscape:connector-curvature="0" />
        </g>
        <g
           transform="translate(920.1235,1055.0713)"
           id="g380">
          <path
             id="path382"
             style="fill:#000000;fill-opacity:1;fill-rule:evenodd;stroke:none"
             d="M 0,0 C 0,0 -72.626,29.167 -131.403,7.451 -138.478,4.839 -143.543,-0.107 -146.211,-7.91 -132.027,4.041 -84.219,20.983 0,0"
             inkscape:connector-curvature="0" />
        </g>
        <g
           transform="translate(959.6729,1102.6284)"
           id="g384">
          <path
             id="path386"
             style="fill:#623426;fill-opacity:1;fill-rule:evenodd;stroke:none"
             d="m 0,0 c -10.913,23.47 -18.935,30.13 -25.677,35.522 -102.387,11.102 -157.822,-8.247 -157.822,-8.247 0,0 -26.09,-20.668 -30.904,-31.425 27.282,11.444 56.169,13.983 56.169,13.983 0,0 138.976,3.488 158.234,-9.833"
             inkscape:connector-curvature="0" />
        </g>
        <g
           transform="translate(971.02,905.3701)"
           id="g388">
          <path
             id="path390"
             style="fill:#cca78d;fill-opacity:1;fill-rule:evenodd;stroke:none"
             d="M 0,0 C 20.989,2.667 52.127,3.865 87.751,-3.78 95.905,-5.53 67.846,32.613 61.731,34.789 55.615,36.965 35.002,35.153 28.358,33.579 21.714,32.005 3.712,19.236 3.409,16.417 3.105,13.598 0,0 0,0"
             inkscape:connector-curvature="0" />
        </g>
        <g
           transform="translate(955.7153,803.5898)"
           id="g392">
          <path
             id="path394"
             style="fill:#cca78d;fill-opacity:1;fill-rule:evenodd;stroke:none"
             d="m 0,0 15.305,12.5 13.452,2.653 c 0,0 5.951,-2.606 10.805,-3.82 18.572,-8.166 33.672,-9.833 59.135,-0.678 3.226,0.844 20.93,-2.077 20.93,-2.077 L 131.885,-2.667 107.51,1.999 67.496,-5.333 44.394,4.277 21.32,1.098 Z"
             inkscape:connector-curvature="0" />
        </g>
        <g
           transform="translate(981.8379,807.9238)"
           id="g396">
          <path
             id="path398"
             style="fill:none;stroke:#000000;stroke-width:9;stroke-linecap:round;stroke-linejoin:round;stroke-miterlimit:10;stroke-dasharray:none;stroke-opacity:1"
             d="m 0,0 c -4.832,-5.333 -17.782,-6.7 -27.481,-7.668 -6.433,0.332 -19.63,3.667 -14.798,35.334 4.831,31.667 34.427,49.001 35.635,96.75 0,0 2.961,30.833 1.942,48.506"
             inkscape:connector-curvature="0" />
        </g>
        <g
           transform="translate(971.7207,814.4229)"
           id="g400">
          <path
             id="path402"
             style="fill:none;stroke:#000000;stroke-width:9;stroke-linecap:round;stroke-linejoin:round;stroke-miterlimit:10;stroke-dasharray:none;stroke-opacity:1"
             d="m 0,0 c 0,0 7.55,10.667 20.838,0 13.288,-10.667 22.348,-17.167 30.653,-17.834 8.306,-0.667 24.008,17.166 34.427,18.5 10.419,1.334 16.157,-1.833 19.177,-3.833"
             inkscape:connector-curvature="0" />
        </g>
        <g
           transform="translate(1063.2256,805.5889)"
           id="g404">
          <path
             id="path406"
             style="fill:none;stroke:#000000;stroke-width:9;stroke-linecap:round;stroke-linejoin:round;stroke-miterlimit:10;stroke-dasharray:none;stroke-opacity:1"
             d="m 0,0 c 2.869,-3 12.985,-7.167 22.499,-6.5 9.513,0.667 18.875,9.334 22.046,17.334 3.171,8 5.435,18.167 3.473,27.167 -1.964,9 -19.027,27 -19.027,27"
             inkscape:connector-curvature="0" />
        </g>
        <g
           transform="translate(996.875,627.5898)"
           id="g408">
          <path
             id="path410"
             style="fill:#c9a88f;fill-opacity:1;fill-rule:evenodd;stroke:none"
             d="m 0,0 c 4,-12.625 7.97,-16.236 11.577,-18.111 3.608,-1.875 26.298,-3.514 30.298,-1.014 4,2.5 10,6.5 12.051,19.125 C 40.375,-5.25 6.5,-1 0,0"
             inkscape:connector-curvature="0" />
        </g>
        <g
           transform="translate(1161,690.75)"
           id="g412">
          <path
             id="path414"
             style="fill:#e8e5de;fill-opacity:1;fill-rule:evenodd;stroke:none"
             d="m 0,0 c -102.666,-16.587 -189.553,-17.838 -271.887,1.241 0,0 64.073,-30.21 78.22,-33.991 18.334,-4.899 94.193,-7.095 109.482,-1.667 C -65.185,-27.672 0,0 0,0"
             inkscape:connector-curvature="0" />
        </g>
        <g
           transform="translate(1161,690.75)"
           id="g416">
          <path
             id="path418"
             style="fill:none;stroke:#000000;stroke-width:10;stroke-linecap:round;stroke-linejoin:round;stroke-miterlimit:10;stroke-dasharray:none;stroke-opacity:1"
             d="m 0,0 c -102.666,-16.587 -189.553,-17.838 -271.887,1.241 0,0 64.073,-30.21 78.22,-33.991 18.334,-4.899 94.193,-7.095 109.482,-1.667 C -65.185,-27.672 0,0 0,0 Z"
             inkscape:connector-curvature="0" />
        </g>
        <g
           transform="translate(997.417,628.1445)"
           id="g420">
          <path
             id="path422"
             style="fill:none;stroke:#000000;stroke-width:6;stroke-linecap:round;stroke-linejoin:round;stroke-miterlimit:10;stroke-dasharray:none;stroke-opacity:1"
             d="M 0,0 C 19.958,-3.68 39.583,-4.18 54.708,-0.223"
             inkscape:connector-curvature="0" />
        </g>
      </g>
    </g>
  </g>
</svg>
